<?xml version="1.0" encoding="utf-8"?>
<svg width="400" height="400" viewBox="0 0 1024 1024" xmlns="http://www.w3.org/2000/svg" role="img" aria-label="amoCRM">
  <circle cx="512" cy="512" r="512" fill="#2A9AF3"/>
  <g transform="translate(212,455) scale(2.6) translate(-491,-251)" fill="#FFFFFF">
    <path d="M519.3 292.217c-1.59.725-3.14 1.086-4.65 1.086-2.054 0-3.429-1.772-4.126-5.32a12.571 12.571 0 0 1-3.951 4.033c-1.628 1.05-3.807 1.574-6.538 1.574-2.731 0-4.93-.838-6.595-2.518-1.666-1.677-2.48-3.718-2.441-6.12 0-6.481 2.188-11.591 6.566-15.33 1.86-1.562 3.593-2.591 5.201-3.088a17.176 17.176 0 0 1 5.085-.743c1.781 0 3.234.305 4.358.915.542-1.105 1.163-1.658 1.86-1.658 1.356 0 2.644.58 3.864 1.744 1.22 1.164 1.83 2.259 1.83 3.288-.542 1.26-1.336 2.765-2.381 4.52-.311 1.753-.466 4.214-.466 7.379 0 3.165.407 4.746 1.22 4.746.624 0 1.798-.76 3.521-2.28.076-3.615.277-6.344.604-8.187.582-3.547 1.898-6.902 3.952-10.067.698-1.067 1.453-1.601 2.266-1.601 1.279 0 2.46 1.03 3.545 3.088.31.535.542 1.03.698 1.487 1.86-2.287 4.047-3.432 6.566-3.432 1.665 0 3.157.543 4.475 1.63 1.316 1.087 1.975 2.451 1.975 4.09v.629c2.363-2.897 5.25-4.347 8.658-4.347 2.093 0 3.681.535 4.765 1.602 1.085 1.067 1.628 2.384 1.628 3.947 0 1.564-.116 2.974-.349 4.233a49.516 49.516 0 0 1-.784 3.546 442.07 442.07 0 0 1-.784 2.945c-.233.859-.35 1.527-.35 2.002 0 .479.155.715.465.715.581 0 1.298-.361 2.151-1.086l.039-.033a12.168 12.168 0 0 1-.388-3.285c-.039-4.537 1.414-8.446 4.358-11.726 2.945-3.279 6.8-4.918 11.565-4.918 2.169 0 3.912.266 5.23.8 2.285.915 3.428 1.773 3.428 2.574 0 .61-1.599.925-4.793.944-3.197.02-5.87 1.106-8.021 3.26-2.149 2.154-3.225 4.871-3.225 8.152 0 1.715.513 3.154 1.54 4.318 1.027 1.164 2.48 1.745 4.359 1.745 1.878 0 3.438-.382 4.678-1.145-2.752-1.83-4.127-4.48-4.127-7.951-.039-1.83.63-3.497 2.005-5.004 1.376-1.506 3.139-2.27 5.288-2.288 2.15-.02 3.69.563 4.62 1.745.93 1.182 1.395 2.698 1.395 4.547 0 1.849-.446 3.804-1.337 5.863h.35c1.704-.039 3.175-.629 4.415-1.774.466-.458.862-.858 1.192-1.201.328-.343.669-.514 1.017-.514.542 0 .813.63.813 1.886 0 2.328-.697 4.072-2.092 5.234-1.394 1.164-2.934 1.745-4.62 1.745-1.685 0-3.108-.114-4.27-.343-3.061 3.547-6.733 5.32-11.013 5.32-4.281 0-7.487-1.078-9.617-3.232a11.86 11.86 0 0 1-.283-.297c-2.556 2.161-5.271 3.242-8.143 3.242-2.79 0-4.184-2.497-4.184-7.492 0-1.259.213-2.994.64-5.206.425-2.21.639-3.832.639-4.862 0-1.258-.736-1.887-2.209-1.887-1.008 0-2.13.963-3.37 2.889a20.304 20.304 0 0 0-2.673 6.206v.113c0 1.298.203 2.633.61 4.005.407 1.372.61 2.326.61 2.86 0 1.296-1.647 2.573-4.94 3.832-.503.19-.95.287-1.336.287-.97 0-1.637-.497-2.005-1.488-.369-.99-.552-2.335-.552-4.033 0-1.696.048-3.297.146-4.804.096-1.506.193-2.897.29-4.176.096-1.277.193-2.402.29-3.374.097-.973.146-1.764.146-2.374 0-1.296-.601-1.945-1.802-1.945-1.2 0-2.596 1.382-4.184 4.146-1.589 2.767-2.382 4.958-2.382 6.578 0 1.622.203 3.119.61 4.491.407 1.373.61 2.326.61 2.86 0 1.296-1.647 2.573-4.939 3.832-.504.19-.95.287-1.337.287-.969 0-1.637-.497-2.005-1.488-.17-.457-.3-1.03-.392-1.716-.784.518-1.612.976-2.483 1.373z"/>
    <path d="M722 287.866c0 3.162-2.604 5.724-5.816 5.724-3.21-.002-5.813-2.564-5.813-5.726 0-3.161 2.604-5.723 5.814-5.721 3.212 0 5.815 2.562 5.815 5.723zm-73.488 5.36c-1.589.727-3.099 1.088-4.532 1.088-1.434 0-2.556-.266-3.37-.8-.814-.535-1.453-1.26-1.918-2.173-.66-1.296-1.201-3.767-1.627-7.409-.427-3.64-.853-6.186-1.278-7.635-1.009-.191-1.89-.581-2.645-1.173-.755-.59-1.133-1.316-1.133-2.174 0-.858.397-1.478 1.192-1.86.792-.38 1.704-.571 2.731-.571 1.026 0 1.947.248 2.76.744a10.839 10.839 0 0 0 2.645-3.118c.677-1.2 1.015-2.82 1.015-4.861 0-2.04-.697-3.67-2.092-4.891-1.394-1.22-3.438-1.83-6.13-1.83-2.692 0-4.756.21-6.188.63-1.434.419-2.665.877-3.69 1.372a86.205 86.205 0 0 0-2.732 1.372c-.795.42-1.54.63-2.237.63-.697 0-1.046-.22-1.046-.659 0-.437.368-1.152 1.104-2.144.736-.992 1.82-1.982 3.254-2.975 3.603-2.478 7.67-3.708 12.204-3.688 4.532.018 8.27.867 11.215 2.545a11.643 11.643 0 0 1 2.25 1.662c.488-.744 1.171-1.412 2.05-2.005 1.898-1.374 4.202-2.06 6.914-2.06 3.486 0 5.54 1.602 6.16 4.805.154.953.27 1.964.35 3.031 2.865-5.299 6.488-7.95 10.866-7.95 4.765 0 7.496 2.25 8.194 6.75.233 1.296.33 2.688.29 4.175v.457c2.517-3.432 5.5-5.148 8.949-5.148 4.882 0 7.322 2.899 7.322 8.695 0 2.517-.397 5.463-1.191 8.836a614.16 614.16 0 0 1-1.742 7.265c-.37 1.468-.553 2.603-.553 3.404 0 1.449.513 2.173 1.54 2.173 1.025 0 3.477-1.981 7.35-5.949.699-.762 1.202-1.143 1.512-1.143.658 0 .988.877.988 2.63 0 .954-.407 2.108-1.22 3.462-.814 1.354-1.87 2.594-3.167 3.717a17.886 17.886 0 0 1-4.33 2.774 11.952 11.952 0 0 1-5.026 1.087c-1.763 0-3.138-.562-4.126-1.687-.989-1.124-1.483-2.383-1.483-3.776 0-1.39.233-2.964.698-4.718a315.52 315.52 0 0 1 1.512-5.49c1.471-5.072 2.226-8.638 2.266-10.697 0-.877-.117-1.554-.35-2.032-.233-.476-.677-.715-1.336-.715-1.163 0-2.402.687-3.719 2.06-1.318 1.373-2.557 3.127-3.718 5.261-2.675 4.882-4.088 9.649-4.243 14.302l.232 1.601c.078.534.116 1.106.116 1.715 0 1.221-.61 2.337-1.83 3.348-1.22 1.009-2.585 1.515-4.097 1.515-.89 0-1.55-.43-1.977-1.288-.426-.857-.638-1.916-.638-3.173 0-1.259.29-2.975.871-5.148.583-2.175 1.22-4.482 1.918-6.923 1.86-6.443 2.81-11.248 2.847-14.413 0-1.602-.202-2.86-.609-3.776-.407-.914-1.192-1.372-2.353-1.372-2.092 0-4.166 1.468-6.219 4.404-2.054 2.937-3.894 7.494-5.522 13.671a67.058 67.058 0 0 0-.987 4.175l-.059 1.087c.736 3.51 1.105 5.796 1.105 6.865 0 2.212-.794 3.698-2.382 4.461-.737.343-1.445.667-2.122.972a5.238 5.238 0 0 1-2.179.458c-1.675 0-2.626-1.361-2.852-4.084a17.863 17.863 0 0 1-3.772 2.31zm2.674-30.657c.038 3.28-.834 6.006-2.616 8.179a15.02 15.02 0 0 1-6.624 4.69 23.424 23.424 0 0 1 1.424 4.06c.367 1.451.726 2.786 1.074 4.006.35 1.221.746 2.23 1.192 3.03.445.802.988 1.202 1.627 1.202.64 0 1.414-.37 2.325-1.115.91-.744 1.81-1.553 2.701-2.43l.396-.392c.486-3.89 1.362-9.097 2.626-15.625.735-3.813 1.104-5.948 1.104-6.406 0-3.09-.795-4.633-2.383-4.633a2.57 2.57 0 0 0-1.482.457c-.445.306-.89.629-1.335.973-.193.148-.386.292-.582.432.369 1.085.553 2.275.553 3.572zm-20.223-2.517c.503 0 .756.649.756 1.945s-.079 2.516-.233 3.66a52.604 52.604 0 0 1-1.337 6.178c-1.394 5.185-2.092 8.217-2.092 9.094v8.408c0 2.06-.794 3.47-2.382 4.234-.737.343-1.444.667-2.122.972-.677.305-1.443.458-2.294.458-1.627 0-2.44-1.84-2.44-5.52 0-.177.002-.356.006-.537-1.53 1.487-3.366 2.79-5.51 3.903-2.666 1.387-5.807 2.08-9.421 2.08-3.618 0-6.785-1.188-9.502-3.57-2.721-2.381-4.078-5.816-4.078-10.305 0-4.487.637-8.556 1.915-12.201 1.278-3.646 2.963-6.795 5.057-9.446 2.092-2.651 4.473-4.715 7.137-6.192 2.665-1.476 5.193-2.215 7.586-2.215 4.188 0 6.28 1.84 6.28 5.515 0 2.11-.393 3.795-1.181 5.061-.79 1.265-1.591 1.897-2.407 1.897-1.088 0-2.039-.42-2.854-1.266-.816-.841-1.714-1.279-2.693-1.309-.98-.03-3.637-.102-5.898 3.473-1.58 2.499-1.337 2.245-1.937 3.932-1.195 3.376-1.896 5.968-1.896 10.486.054 2.17 2.025 5.487 3.765 6.573 1.196.722 2.622 1.33 4.242 1.129 3.494-.433 5.456-2.064 6.884-3.57 1.318-1.391 2.48-2.71 3.732-4.128a94.703 94.703 0 0 0 3.303-3.93c.172-.218.336-.416.493-.594 1.619-4.977 3.303-8.819 5.054-11.527.386-.572.948-1.162 1.684-1.773.736-.61 1.53-.915 2.383-.915"/>
  </g>
</svg>
